<?xml version="1.0" standalone="no"?><!DOCTYPE svg PUBLIC "-//W3C//DTD SVG 1.1//EN" "http://www.w3.org/Graphics/SVG/1.1/DTD/svg11.dtd"><svg t="1500108633468" class="icon" style="" viewBox="0 0 1024 1024" version="1.1" xmlns="http://www.w3.org/2000/svg" p-id="4172" xmlns:xlink="http://www.w3.org/1999/xlink" width="200" height="200"><defs><style type="text/css"></style></defs><path d="M670.276816 363.53362c10.251481 0 20.428262 0.751107 30.53034 1.877767C673.431669 237.732449 536.927739 142.875035 381.122207 142.875035c-174.206624 0-316.90565 118.741381-316.90565 269.477454 0 87.046518 47.466058 158.509107 126.815267 213.93751l-31.694863 95.308693 110.780059-55.539944c39.655162 7.848759 71.424726 15.884782 111.005186 15.884782 9.951653 0 19.789719-0.450255 29.590945-1.201361-6.233981-21.179368-9.801227-43.410696-9.801227-66.429968C400.875087 475.891617 519.765871 363.53362 670.276816 363.53362zM499.900428 277.613762c23.846104 0 39.655162 15.696494 39.655162 39.542598 0 23.77038-15.810081 39.655162-39.655162 39.655162-23.733541 0-47.541783-15.884782-47.541783-39.655162C452.359668 293.310256 476.16791 277.613762 499.900428 277.613762zM278.153044 356.812545c-23.77038 0-47.729048-15.884782-47.729048-39.655162 0-23.846104 23.958668-39.542598 47.729048-39.542598 23.733541 0 39.542598 15.696494 39.542598 39.542598C317.695642 340.889901 301.923424 356.812545 278.153044 356.812545z" p-id="4173" fill="#e6e6e6"></path><path d="M959.469288 610.479919c0-126.702704-126.739543-229.934856-269.139763-229.934856-150.773935 0-269.514293 103.270015-269.514293 229.934856 0 126.927831 118.741381 229.971695 269.514293 229.971695 31.544437 0 63.388702-7.998161 95.083565-15.922644l86.897116 47.578622-23.882943-79.160921C912.115793 745.218646 959.469288 681.942507 959.469288 610.479919zM602.945315 570.899458c-15.772218 0-31.694863-15.734356-31.694863-31.731702 0-15.810081 15.922644-31.694863 31.694863-31.694863 23.99653 0 39.693024 15.884782 39.693024 31.694863C642.600477 555.165102 626.903983 570.899458 602.945315 570.899458zM777.22664 570.899458c-15.659655 0-31.468712-15.734356-31.468712-31.731702 0-15.810081 15.810081-31.694863 31.468712-31.694863 23.77038 0 39.693024 15.884782 39.693024 31.694863C816.919664 555.165102 800.99702 570.899458 777.22664 570.899458z" p-id="4174" fill="#e6e6e6"></path></svg>