<?xml version="1.0" standalone="no"?><!DOCTYPE svg PUBLIC "-//W3C//DTD SVG 1.1//EN" "http://www.w3.org/Graphics/SVG/1.1/DTD/svg11.dtd"><svg t="1500109331158" class="icon" style="" viewBox="0 0 1024 1024" version="1.1" xmlns="http://www.w3.org/2000/svg" p-id="9915" xmlns:xlink="http://www.w3.org/1999/xlink" width="200" height="200"><defs><style type="text/css"></style></defs><path d="M767.779 625.216l-11.292-19.9-19.97-11.313c-5.621-3.102-11.734-5.622-18.08-7.349l-21.976-6.089-21.999 6.089c-6.486 1.728-12.459 4.245-18.079 7.349l-19.946 11.313-11.313 19.9c-3.079 5.622-5.623 11.734-7.372 18.08l-6.089 21.999 6.089 21.978c1.749 6.414 4.293 12.409 7.372 18.057l11.313 19.946 19.946 11.242a81.122 81.122 0 0 0 18.079 7.371l21.999 6.138 21.976-6.138c6.486-1.727 12.459-4.245 18.08-7.371l19.97-11.242 11.292-19.946c3.079-5.646 5.622-11.735 7.372-18.057l6.089-21.978-6.089-21.999c-1.75-6.439-4.293-12.458-7.372-18.08z m-71.316 90.097c-27.667 0-50.088-22.42-50.088-50.018 0-27.646 22.42-50.04 50.088-50.04 27.762 0 50.182 22.396 50.088 50.04 0 27.599-22.42 50.018-50.088 50.018zM512 82C274.523 82 82 274.523 82 512c0 237.489 192.522 430 430 430 237.49 0 430-192.511 430-430 0-237.477-192.51-430-430-430z m-8.887 508.853h-3.382c-104.34 3.547-191.273 75.215-205.179 175.574v7.141c0 14.368-10.429 25.102-20.868 25.102-10.428 0-24.344-10.731-24.344-25.102v-3.549-7.185c13.916-96.769 73.032-171.981 156.479-204.269-48.677-28.648-79.973-85.991-79.973-150.485 0-100.327 76.496-182.748 173.883-182.748 97.353 0 173.85 82.42 173.85 182.748 0 20.319-3.431 39.776-9.192 58.112-16.983 2.239-33.313 6.509-48.711 12.691 12.225-20.798 19.645-44.828 19.645-70.804 0-75.249-59.115-139.753-135.589-139.753-76.52 0-132.159 64.504-132.159 139.753 0 75.247 59.116 139.752 135.612 139.752 9.285-0.468 18.337-1.89 27.11-4.106-11.039 14.326-20.254 30.121-27.182 47.128zM837.02 696.93h-27.808c-2.52 9.099-6.182 17.869-10.685 25.918l19.55 19.572c3.592 3.547 3.592 9.425 0 13.019l-31.519 31.518c-1.75 1.728-4.035 2.636-6.463 2.636-2.332 0-4.734-0.909-6.484-2.636l-19.552-19.572c-8.071 4.596-16.818 8.143-25.918 10.686v27.761c0 5.063-4.151 9.216-9.214 9.216h-44.723c-5.086 0-9.215-4.152-9.215-9.216v-27.761c-9.1-2.542-17.822-6.183-25.918-10.686L619.5 786.956c-1.749 1.728-4.152 2.636-6.463 2.636-2.331 0-4.735-0.909-6.485-2.636l-31.517-31.519c-3.593-3.593-3.593-9.471 0-13.019l19.55-19.571c-4.597-8.049-8.167-16.82-10.687-25.918H556.09c-5.061 0-9.215-4.152-9.215-9.216v-44.628c0-5.086 4.154-9.216 9.215-9.216h27.809c2.52-9.098 6.184-17.869 10.687-25.918l-19.55-19.571c-3.593-3.594-3.593-9.426 0-13.019l31.517-31.518c1.75-1.729 4.154-2.636 6.485-2.636 2.311 0 4.714 0.908 6.463 2.636l19.573 19.433c8.096-4.573 16.819-8.165 25.918-10.686v-27.645c0-5.054 4.129-9.204 9.215-9.204h44.723c5.063 0 9.214 4.151 9.214 9.204v27.645c9.101 2.521 17.848 6.183 25.919 10.686l19.551-19.55c1.75-1.75 4.081-2.662 6.484-2.662 2.312 0 4.713 0.912 6.463 2.662l31.519 31.54c3.592 3.546 3.592 9.449 0 12.994l-19.55 19.598c4.595 8.048 8.165 16.797 10.685 25.872h27.809c5.063 0 9.215 4.152 9.215 9.354v44.628c-0.005 5.064-4.156 9.218-9.219 9.218z" fill="#06AE14" p-id="9916"></path></svg>