<?xml version="1.0" standalone="no"?><!DOCTYPE svg PUBLIC "-//W3C//DTD SVG 1.1//EN" "http://www.w3.org/Graphics/SVG/1.1/DTD/svg11.dtd"><svg t="1491027337210" class="icon" style="" viewBox="0 0 1024 1024" version="1.1" xmlns="http://www.w3.org/2000/svg" p-id="10640" xmlns:xlink="http://www.w3.org/1999/xlink" width="200" height="200"><defs><style type="text/css"></style></defs><path d="M513.039679 52.958142c245.151419 0 443.895903 202.524576 443.895903 452.339202S758.192122 957.636546 513.039679 957.636546 69.1448 755.11197 69.1448 505.297344 267.88826 52.958142 513.039679 52.958142L513.039679 52.958142zM509.192048 511.605004c6.727215 0 11.974729 1.200338 16.660448 5.65479l90.040712 82.604346c0.588401 0.599657 0.929162 1.040702 1.544169 1.600451l5.221932 4.600785c1.243317 1.013073 1.89721 2.02717 3.232624 3.080152 4.998851 3.934612 14.762215 14.135952 19.931958 18.203594l6.687306 6.294356c1.204431 1.187035 2.054799 1.653663 3.311419 2.973728l23.38664 21.444405c0.576121 0.586354 0.955768 1.026376 1.584078 1.560542 8.597819 7.335059 16.477276 15.536858 25.101701 22.871917l20.089547 18.444071c0.772596 0.760317 3.036149 2.76088 3.402493 3.294023L298.342876 704.232163c0.942465-1.439792 1.845021-2.053776 3.167133-3.121084l14.487969-13.843286c0.784876-0.667196 0.942465-0.653893 1.740644-1.399883l3.808746-3.667529c0.065492-0.053212 0.156566-0.119727 0.209778-0.172939l8.834202-8.482185c6.700609-6.001691 21.855774-21.004383 26.044166-24.298406l25.978674-24.351618c1.13894-1.013073 2.028193-2.080382 3.114944-3.187599 1.216711-1.213641 2.081405-1.680269 3.323699-2.960425 4.449335-4.614088 11.5695-10.589173 16.359596-15.496949 1.243317-1.266853 2.093684-1.706875 3.323699-2.973728l6.426363-6.161327c2.329045-2.12029 4.881171-2.427282 7.119141-5.454222 0.850367-1.133823 1.688455-2.600221 2.63092-3.680832l25.913183-24.432459c1.243317-1.280156 2.12029-1.746784 3.323699-2.960425 2.224668-2.25332 4.227278-3.906983 6.41306-6.17463l6.438643-6.148024c0.772596-0.693802 0.981351-0.693802 1.753947-1.38658l3.140527-3.160993c0.784876-0.667196 0.942465-0.653893 1.740644-1.399883l19.408025-18.35095C497.989915 517.073552 501.562277 511.605004 509.192048 511.605004L509.192048 511.605004zM645.208884 579.526953c1.046842-1.613754 1.88493-1.760087 3.219321-3.080152 1.243317-1.240247 2.159176-1.799996 3.311419-2.973728 0.62831-0.627287 0.929162-1.013073 1.596358-1.560542l8.350179-7.374968c6.792707-6.721075 21.37175-18.510586 26.881231-24.231891 3.442402-3.561106 13.06148-11.362792 16.751522-15.096836 1.216711-1.226944 2.068102-1.680269 3.311419-2.973728 1.282203-1.320065 2.211365-1.826602 3.507894-3.187599 1.164522-1.200338 2.081405-1.786693 3.323699-2.973728l10.129708-9.135054c0.811482-0.760317 0.942465-0.733711 1.740644-1.399883 0.653893-0.573051 0.955768-0.973164 1.570775-1.587148l20.076244-18.057261c0.902556-0.86674 2.787486-2.600221 3.795443-2.880607L752.774739 678.015058c-1.191128-0.320295-5.588275-4.734838-6.713912-5.867638l-31.775704-29.179576c-0.824785-0.747014-1.112334-0.786922-1.950422-1.587148l-23.361057-21.471011c-1.3743-1.173732-1.89721-1.987261-3.454682-3.227508L645.208884 579.526953zM273.005814 679.602206 273.005814 479.438397c0.902556 0.61296 2.578732 2.02717 3.415796 2.880607 1.230014 1.25355 2.068102 1.733481 3.311419 2.973728l34.288944 30.593785c0.693802 0.64059 0.824785 0.86674 1.636267 1.50733 3.913123 3.107781 9.711176 9.095145 13.70207 12.256138l18.701944 16.683984c1.347694 1.054005 1.976004 1.987261 3.284813 3.000334 1.282203 1.013073 2.172479 1.987261 3.560082 3.121084l3.337002 2.960425c0.680499 0.586354 0.929162 0.959861 1.622964 1.533936 0.850367 0.693802 1.060145 0.747014 1.910513 1.613754 0.615007 0.64059 0.915859 1.013073 1.596358 1.560542l8.53335 7.588839c1.858324 1.880837 9.108448 7.721869 10.220782 9.428743-0.915859 1.399883-8.350179 8.241708-10.012028 9.641591l-95.052866 89.406263c-0.065492 0.053212-0.144286 0.13303-0.209778 0.186242-0.052189 0.053212-0.144286 0.13303-0.196475 0.199545C275.452539 677.68146 274.641057 679.162184 273.005814 679.602206L273.005814 679.602206zM407.857105 552.907689l-9.841136-8.641821c-4.894474-4.6673-13.977339-11.962449-18.322297-16.270569-1.675152-1.653663-3.795443-2.814092-3.795443-4.080945L375.898229 287.222607l273.983071 0 0 240.266156c0 1.346671-9.488095 9.174963-11.203156 10.828626l-15.573697 13.923104c-1.518586 1.293459-2.303462 2.294252-4.00522 3.453658l-41.814338-38.422078c-5.850242-6.001691-15.364943-13.616112-20.834514-19.270902-3.15383-3.267417-12.026918-10.881838-15.862269-13.229303-19.893072-12.202926-45.792952-10.642384-63.984267 3.961218l-19.931958 18.603707c-3.677762 3.787256-10.796904 9.828856-14.435781 13.496385l-16.934694 16.096607c-1.112334 1.12052-1.831718 1.454118-2.931772 2.573615l-5.653767 5.361101c-0.915859 0.959861-1.753947 1.920746-2.735297 2.76088C411.44277 549.786605 410.29155 551.254026 407.857105 552.907689L407.857105 552.907689zM684.575474 496.90828 684.575474 374.588397c1.282203 0.880043 6.621814 6.26775 7.970532 7.761778l1.530866 1.613754c0.078795 0.079818 0.314155 0.306992 0.405229 0.38681l6.164397 6.028297c6.399757 6.52153 13.296841 12.82919 19.068288 19.898189l2.473331 2.64013c0.418532 0.453325 0.458441 0.573051 0.915859 1.040702 0.39295 0.413416 0.222057 0.200568 0.589424 0.586354 0.209778 0.226151 0.39295 0.426719 0.562818 0.627287 3.795443 4.213975 22.445198 22.418592 23.845081 24.552186-0.915859 1.38658-9.711176 8.761548-11.791557 10.629081l-3.89982 3.561106c-0.707105 0.693802-1.046842 1.147126-1.792832 1.760087l-19.87977 17.871019c-0.981351 0.800225-1.151219 0.86674-2.093684 1.826602l-6.046716 5.361101c-0.772596 0.720408-1.164522 1.280156-1.989307 1.947352-1.530866 1.240247-2.473331 2.200108-4.0175 3.453658-0.74599 0.61296-1.073448 1.054005-1.779529 1.746784-0.915859 0.906649-1.25662 0.986467-2.145873 1.786693L684.575474 496.90828zM279.247982 437.735599c1.125637-0.306992 3.180436-2.64013 3.991917-3.466961l9.540284-9.735735c1.204431-0.99977 1.125637-0.453325 2.355651-1.573845 3.847631-3.493567 8.585539-9.148357 12.275581-12.509918l2.054799-1.880837c5.915733-5.387707 10.652618-10.708899 16.254196-16.403598 2.407839-2.453888 13.885242-14.496156 15.494902-15.59007l0 116.759237c-2.7486-1.867534-8.651031-7.801686-11.529591-10.095939-0.876973-0.680499-1.060145-1.013073-1.845021-1.693572l-25.310456-22.658046c-0.838088-0.813528-1.112334-0.840134-1.950422-1.587148l-13.636578-12.30935C285.320281 443.35048 280.360316 439.442474 279.247982 437.735599L279.247982 437.735599zM512.699941 217.71351c8.441253 0 9.867742 2.267647 15.246239 6.694469l15.874549 13.616112c1.871627 1.533936 3.363607 3.000334 5.287423 4.547573l8.101515 6.828522c0.968048 0.853437 2.041496 1.547239 2.6432 2.467191l-91.584881 0c0.798179-1.213641 6.124488-5.721305 7.629771-6.921643l23.937179-20.484543C503.028675 221.941811 506.757602 217.71351 512.699941 217.71351L512.699941 217.71351zM238.703567 440.909895l0 266.898723c0 4.001127 1.989307 9.188266 3.37691 12.042267 1.3743 2.800789 2.800789 4.841262 4.697999 7.134491 5.405103 6.561439 14.370289 12.189623 23.112394 12.189623l485.997789 0c4.13518 0 7.852852-1.439792 11.386328-3.094478 0.693802-0.320295 0.929162-0.373507 1.609661-0.747014 1.819438-0.986467 3.467985-2.133593 4.946662-3.294023l4.437056-4.213975c2.774183-3.400446 4.580319-6.548136 6.478552-10.482749 2.237971-4.6673 2.329045-9.749038 2.329045-15.096836L787.075962 461.567377c0-5.254677-0.431835-11.895935 0.169869-16.923438 1.099031-9.108448-5.470595-20.524452-11.5695-26.272363-8.074909-7.615445-15.783475-15.669888-23.583115-23.632233-16.176424-16.470113-32.66598-32.647561-48.462758-49.491181l-0.981351-0.986467c-0.693802-0.760317-0.379647-0.533143-1.112334-1.25355l-2.015913-1.920746c-0.523933-0.546446-0.536212-0.61296-0.929162-1.039679-0.732687-0.826831-0.497327-0.479931-1.204431-1.160429l-11.647271-11.962449c-0.772596-0.786922-0.39295-0.106424-1.164522-1.187035 0-13.109576 0-26.205848 0-39.315424 0-15.709797 1.688455-24.52558-7.79964-31.380708-4.437056-3.200902-8.598842-3.174296-15.97995-3.174296l-38.97364 0c-6.112208 0-7.446599 1.64036-11.974729-2.480494l-7.79964-6.747681c-3.467985-3.160993-7.145747-5.867638-10.522658-9.135054-3.337002-3.227508-7.172353-5.880941-10.522658-9.135054-4.109598-3.987824-8.728802-7.561209-13.087063-11.296277-0.981351-0.840134-1.76725-1.547239-2.774183-2.334161-1.819438-1.453095-3.232624-2.880607-5.012154-4.414543-1.871627-1.600451-3.442402-3.040243-5.287423-4.547573-3.625574-3.000334-6.831592-6.375198-10.574846-9.081843-16.411785-11.82942-42.442648-13.043061-59.350736-0.906649-8.807596 6.320962-16.385179 14.323217-24.774243 21.218254l-19.840884 17.110703c-5.012154 4.78805-10.600429 9.121751-15.770172 13.722536-1.505283 1.333368-2.839675 2.573615-4.423753 3.827165-1.3743 1.093914-2.852978 3.040243-4.397147 3.867074-4.437056 2.387373-54.600549-2.347464-63.970964 1.920746-9.933233 4.520967-10.522658 12.402471-10.522658 23.031553 0 4.361331 0.484024 47.810912-0.104377 49.957809-0.353041 1.333368-2.787486 3.227508-3.89982 4.361331-1.518586 1.547239-2.761903 2.814092-4.279467 4.361331l-49.496298 50.050929c-8.53335 8.68173-20.180622 21.191648-28.844955 29.393447-0.824785 0.786922-1.453095 1.173732-2.407839 1.907443C245.273193 421.811932 238.703567 431.680696 238.703567 440.909895L238.703567 440.909895z" p-id="10641" fill="#e6e6e6"></path></svg>