<?xml version="1.0" standalone="no"?><!DOCTYPE svg PUBLIC "-//W3C//DTD SVG 1.1//EN" "http://www.w3.org/Graphics/SVG/1.1/DTD/svg11.dtd"><svg t="1491026622589" class="icon" style="" viewBox="0 0 1024 1024" version="1.1" xmlns="http://www.w3.org/2000/svg" p-id="3995" xmlns:xlink="http://www.w3.org/1999/xlink" width="200" height="200"><defs><style type="text/css"></style></defs><path d="M512 1024c-26.112 0-50.176-11.776-66.048-31.744l-243.712-304.128C134.656 612.864 97.28 515.072 97.28 413.696 97.28 185.344 283.136 0 512 0s414.72 185.344 414.72 413.696c0 103.424-37.888 199.168-109.568 276.48l-239.104 301.568C562.176 1012.224 537.6 1024 512 1024zM512 71.68c-189.44 0-343.552 153.6-343.552 342.016 0 83.968 31.232 164.864 87.552 228.352l245.248 305.664c6.656 8.704 13.824 8.704 20.992 0l240.64-303.616c60.928-66.048 92.16-144.896 92.16-229.888C855.552 224.768 701.44 71.68 512 71.68z" p-id="3996" fill="#f4ea2a"></path><path d="M513.536 607.232c-114.688 0-207.872-92.672-208.384-206.848 0-55.296 21.504-107.52 60.928-146.944 39.424-39.424 91.648-60.928 146.944-60.928 114.688 0 208.384 92.672 208.384 206.848 0 55.296-21.504 107.52-60.928 146.944C622.08 585.216 569.856 607.232 513.536 607.232L513.536 607.232zM513.536 274.944c-33.792 0-65.024 13.312-89.088 36.864-23.552 23.552-36.352 54.784-36.352 88.064 0 68.608 56.32 124.416 125.44 124.416l0 41.472 0-41.472c33.28 0 65.024-13.312 88.576-36.864 23.552-23.552 36.352-54.784 36.352-88.064C638.976 330.752 582.656 274.944 513.536 274.944z" p-id="3997" fill="#f4ea2a"></path><path d="M514.048 192c55.296 0 107.52 22.016 146.944 60.928 39.424 39.424 60.928 91.648 60.928 146.944 0 114.176-93.696 206.848-208.384 206.848-55.296 0-107.52-22.016-146.944-60.928C327.168 506.88 305.664 454.656 305.664 399.36 305.664 285.184 399.36 192 514.048 192L514.048 192zM638.976 399.872c0-33.28-12.8-64.512-36.352-88.064-23.552-23.552-55.296-36.864-88.576-36.864l0-41.472 0 41.472c-69.12 0-125.44 55.808-125.44 124.416 0 33.28 12.8 64.512 36.352 88.064 23.552 23.552 55.296 36.864 89.088 36.864C582.656 524.288 638.976 468.48 638.976 399.872z" p-id="3998" fill="#f4ea2a"></path><path d="M351.744 611.84" p-id="3999" fill="#f4ea2a"></path></svg>