<?xml version="1.0" standalone="no"?><!DOCTYPE svg PUBLIC "-//W3C//DTD SVG 1.1//EN" "http://www.w3.org/Graphics/SVG/1.1/DTD/svg11.dtd"><svg t="1490772191279" class="icon" style="" viewBox="0 0 1024 1024" version="1.1" xmlns="http://www.w3.org/2000/svg" p-id="3261" xmlns:xlink="http://www.w3.org/1999/xlink" width="200" height="200"><defs><style type="text/css"></style></defs><path d="M275.328 365.248 275.328 407.936 562.624 155.008 513.472 155.008Z" p-id="3262" fill="#e6e6e6"></path><path d="M275.328 273.728 275.328 313.024 465.728 144.512 433.408 144.512Z" p-id="3263" fill="#e6e6e6"></path><path d="M826.24 867.456c0 77.888-63.232 141.12-141.056 141.12L336.768 1008.576c-77.952 0-141.184-63.232-141.184-141.12L195.584 159.872c0-77.888 63.168-141.12 141.184-141.12l348.16 0c78.016 0 141.184 63.232 141.184 141.12L826.24 867.456 826.24 867.456zM766.656 124.608l-511.36 0 0 730.304 511.36 0L766.656 124.608z" p-id="3264" fill="#e6e6e6"></path><path d="M516.288 888.64c-25.536 0-46.208 20.672-46.208 46.208 0 25.536 20.608 46.464 46.208 46.464 25.728 0 46.4-20.8 46.4-46.464C562.688 909.312 542.016 888.64 516.288 888.64z" p-id="3265" fill="#e6e6e6"></path></svg>