<?xml version="1.0" standalone="no"?><!DOCTYPE svg PUBLIC "-//W3C//DTD SVG 1.1//EN" "http://www.w3.org/Graphics/SVG/1.1/DTD/svg11.dtd"><svg t="1491026585130" class="icon" style="" viewBox="0 0 1024 1024" version="1.1" xmlns="http://www.w3.org/2000/svg" p-id="3285" xmlns:xlink="http://www.w3.org/1999/xlink" width="200" height="200"><defs><style type="text/css"></style></defs><path d="M956.416 88.32c-3.712-11.136-13.184-24.32-36.992-24.32l-14.08 0.768-4.864 2.432c-2.56 0.896-5.12 1.792-7.04 2.816L102.656 405.632C70.144 419.584 65.28 441.088 65.28 452.608c0 27.392 22.144 42.112 29.44 46.976l318.72 103.168 106.112 329.472 6.912 7.424c3.84 4.608 8.704 10.24 16 13.824 5.632 2.816 13.312 6.656 22.912 6.656 12.16 0 22.4-4.224 31.36-13.312 6.784-6.912 10.112-13.568 15.488-24.192l337.664-789.248c11.392-18.944 9.856-34.944 6.528-45.056zM807.68 216.192L576 761.6l-83.712-240.768-235.904-71.808L807.68 216.192z" p-id="3286" fill="#f4ea2a"></path></svg>