<?xml version="1.0" standalone="no"?><!DOCTYPE svg PUBLIC "-//W3C//DTD SVG 1.1//EN" "http://www.w3.org/Graphics/SVG/1.1/DTD/svg11.dtd"><svg t="1500109934795" class="icon" style="" viewBox="0 0 1024 1024" version="1.1" xmlns="http://www.w3.org/2000/svg" p-id="14396" xmlns:xlink="http://www.w3.org/1999/xlink" width="200" height="200"><defs><style type="text/css"></style></defs><path d="M133.12 728.746667v167.253333c0 37.546667 29.013333 68.266667 63.146667 68.266667h590.506666c34.133333 0 63.146667-30.72 63.146667-68.266667v-768c0-37.546667-29.013333-68.266667-63.146667-68.266667H194.56c-34.133333 0-63.146667 30.72-63.146667 68.266667V290.133333" fill="#BED3F4" p-id="14397"></path><path d="M786.773333 981.333333H194.56c-44.373333 0-80.213333-37.546667-80.213333-85.333333v-167.253333c0-10.24 6.826667-17.066667 17.066666-17.066667s17.066667 6.826667 17.066667 17.066667v167.253333c0 29.013333 20.48 51.2 46.08 51.2H785.066667c25.6 0 46.08-22.186667 46.08-51.2v-768c0-29.013333-20.48-51.2-46.08-51.2H194.56c-25.6 0-46.08 22.186667-46.08 51.2V290.133333c0 10.24-6.826667 17.066667-17.066667 17.066667s-17.066667-6.826667-17.066666-17.066667V126.293333c0-47.786667 35.84-85.333333 80.213333-85.333333H785.066667c44.373333 0 80.213333 37.546667 80.213333 85.333333v768c1.706667 47.786667-34.133333 87.04-78.506667 87.04z" fill="#4E6DC4" p-id="14398"></path><path d="M133.12 638.293333c-10.24 0-17.066667-6.826667-17.066667-17.066666V395.946667c0-10.24 6.826667-17.066667 17.066667-17.066667s17.066667 6.826667 17.066667 17.066667v226.986666c0 8.533333-6.826667 15.36-17.066667 15.36zM196.266667 691.2H80.213333c-10.24 0-17.066667-6.826667-17.066666-17.066667s6.826667-17.066667 17.066666-17.066666h116.053334c10.24 0 17.066667 6.826667 17.066666 17.066666s-6.826667 17.066667-17.066666 17.066667zM196.266667 360.106667H80.213333c-10.24 0-17.066667-6.826667-17.066666-17.066667s6.826667-17.066667 17.066666-17.066667h116.053334c10.24 0 17.066667 6.826667 17.066666 17.066667s-6.826667 17.066667-17.066666 17.066667z" fill="#566EB5" p-id="14399"></path><path d="M498.346667 360.106667m-116.053334 0a116.053333 116.053333 0 1 0 232.106667 0 116.053333 116.053333 0 1 0-232.106667 0Z" fill="#DCE5F7" p-id="14400"></path><path d="M498.346667 491.52c-73.386667 0-133.12-59.733333-133.12-133.12s59.733333-133.12 133.12-133.12S631.466667 285.013333 631.466667 358.4s-59.733333 133.12-133.12 133.12z m0-230.4c-54.613333 0-98.986667 44.373333-98.986667 98.986667 0 54.613333 44.373333 98.986667 98.986667 98.986666 54.613333 0 98.986667-44.373333 98.986666-98.986666 0-54.613333-44.373333-98.986667-98.986666-98.986667z" fill="#4E6DC4" p-id="14401"></path><path d="M694.613333 665.6c-1.706667-105.813333-88.746667-191.146667-194.56-191.146667S307.2 559.786667 305.493333 665.6" fill="#DCE5F7" p-id="14402"></path><path d="M677.546667 665.6c-1.706667-95.573333-81.92-174.08-177.493334-174.08S322.56 570.026667 320.853333 665.6h-34.133333c1.706667-114.346667 97.28-208.213333 211.626667-208.213333S708.266667 551.253333 709.973333 665.6h-32.426666z" fill="#4E6DC4" p-id="14403"></path><path d="M846.506667 851.626667H141.653333c-10.24 0-17.066667-6.826667-17.066666-17.066667s6.826667-17.066667 17.066666-17.066667h704.853334c10.24 0 17.066667 6.826667 17.066666 17.066667s-6.826667 17.066667-17.066666 17.066667z" fill="#566EB5" p-id="14404"></path><path d="M916.48 283.306667h-66.56v167.253333h66.56c18.773333 0 34.133333-15.36 34.133333-34.133333v-98.986667c0-18.773333-15.36-34.133333-34.133333-34.133333z" fill="#BED3F4" p-id="14405"></path><path d="M916.48 467.626667h-66.56c-10.24 0-17.066667-6.826667-17.066667-17.066667v-167.253333c0-10.24 6.826667-17.066667 17.066667-17.066667h66.56c29.013333 0 51.2 22.186667 51.2 51.2v98.986667c0 29.013333-23.893333 51.2-51.2 51.2z m-49.493333-34.133334h49.493333c10.24 0 17.066667-6.826667 17.066667-17.066666v-98.986667c0-10.24-6.826667-17.066667-17.066667-17.066667h-49.493333v133.12z" fill="#4E6DC4" p-id="14406"></path><path d="M916.48 455.68h-66.56v167.253333h66.56c18.773333 0 34.133333-15.36 34.133333-34.133333v-98.986667c0-18.773333-15.36-34.133333-34.133333-34.133333z" fill="#DCE5F7" p-id="14407"></path><path d="M916.48 641.706667h-83.626667V438.613333h83.626667c29.013333 0 51.2 22.186667 51.2 51.2v98.986667c0 29.013333-23.893333 52.906667-51.2 52.906667z m-49.493333-34.133334h49.493333c10.24 0 17.066667-6.826667 17.066667-17.066666v-98.986667c0-10.24-6.826667-17.066667-17.066667-17.066667h-49.493333v133.12z" fill="#4E6DC4" p-id="14408"></path><path d="M916.48 629.76h-66.56v167.253333h66.56c18.773333 0 34.133333-15.36 34.133333-34.133333v-98.986667c0-18.773333-15.36-34.133333-34.133333-34.133333z" fill="#DCE5F7" p-id="14409"></path><path d="M916.48 814.08h-83.626667V612.693333h83.626667c29.013333 0 51.2 22.186667 51.2 51.2v98.986667c0 29.013333-23.893333 51.2-51.2 51.2z m-49.493333-34.133333h49.493333c10.24 0 17.066667-6.826667 17.066667-17.066667v-98.986667c0-10.24-6.826667-17.066667-17.066667-17.066666h-49.493333v133.12z" fill="#4E6DC4" p-id="14410"></path></svg>